<svg width="24" height="24" viewBox="0 0 24 24" fill="none" xmlns="http://www.w3.org/2000/svg">
<path fill-rule="evenodd" clip-rule="evenodd" d="M10.0892 4.41941C11.0393 3.51057 12.3277 3 13.6713 3H16.2765C16.6762 3 17.0002 3.30996 17.0002 3.69231V7.01538C17.0002 7.39773 16.6762 7.70769 16.2765 7.70769H13.6713C13.6328 7.70769 13.5961 7.72228 13.5689 7.74824C13.5418 7.77421 13.5265 7.80943 13.5265 7.84615V9.64615H16.2765C16.4994 9.64615 16.7098 9.74437 16.847 9.91241C16.9841 10.0804 17.0326 10.2995 16.9786 10.5064L16.1102 13.8294C16.0296 14.1377 15.7402 14.3538 15.4081 14.3538H13.5265V20.3077C13.5265 20.69 13.2025 21 12.8028 21H9.32915C8.92947 21 8.60546 20.69 8.60546 20.3077V14.3538H6.72388C6.32421 14.3538 6.0002 14.0439 6.0002 13.6615V10.3385C6.0002 9.95611 6.32421 9.64615 6.72388 9.64615H8.60546V7.84615C8.60546 6.56087 9.13917 5.32824 10.0892 4.41941ZM13.6713 4.38462C12.7115 4.38462 11.7912 4.74931 11.1126 5.39848C10.4341 6.04764 10.0528 6.9281 10.0528 7.84615V10.3385C10.0528 10.7208 9.72881 11.0308 9.32915 11.0308H7.44757V12.9692H9.32915C9.72881 12.9692 10.0528 13.2792 10.0528 13.6615V19.6154H12.0791V13.6615C12.0791 13.2792 12.4032 12.9692 12.8028 12.9692H14.843L15.3496 11.0308H12.8028C12.4032 11.0308 12.0791 10.7208 12.0791 10.3385V7.84615C12.0791 7.44221 12.2468 7.05481 12.5455 6.76917C12.844 6.48354 13.249 6.32308 13.6713 6.32308H15.5528V4.38462H13.6713Z" fill="#0C0C23" stroke="#0C0C23" stroke-width="0.2"/>
</svg>
