<svg width="25" height="24" viewBox="0 0 25 24" fill="none" xmlns="http://www.w3.org/2000/svg">
<path d="M20.1801 12V21.6H4.82007V12" stroke="white" stroke-width="2" stroke-linecap="round" stroke-linejoin="round"/>
<path d="M22.1 7.2002H2.90002V12.0002H22.1V7.2002Z" stroke="white" stroke-width="2" stroke-linecap="round" stroke-linejoin="round"/>
<path d="M12.5 21.6002V7.2002" stroke="white" stroke-width="2" stroke-linecap="round" stroke-linejoin="round"/>
<path d="M12.5 7.20039H8.18003C7.54351 7.20039 6.93306 6.94753 6.48297 6.49745C6.03289 6.04736 5.78003 5.43691 5.78003 4.80039C5.78003 4.16387 6.03289 3.55342 6.48297 3.10333C6.93306 2.65325 7.54351 2.40039 8.18003 2.40039C11.54 2.40039 12.5 7.20039 12.5 7.20039Z" stroke="white" stroke-width="2" stroke-linecap="round" stroke-linejoin="round"/>
<path d="M12.5 7.20039H16.82C17.4565 7.20039 18.067 6.94753 18.5171 6.49745C18.9671 6.04736 19.22 5.43691 19.22 4.80039C19.22 4.16387 18.9671 3.55342 18.5171 3.10333C18.067 2.65325 17.4565 2.40039 16.82 2.40039C13.46 2.40039 12.5 7.20039 12.5 7.20039Z" stroke="white" stroke-width="2" stroke-linecap="round" stroke-linejoin="round"/>
</svg>
