<svg width="15" height="19" viewBox="0 0 15 19" fill="none" xmlns="http://www.w3.org/2000/svg">
<path d="M7.15392 10.1145C8.51339 10.1145 9.61546 9.01242 9.61546 7.65294C9.61546 6.29347 8.51339 5.19141 7.15392 5.19141C5.79445 5.19141 4.69238 6.29347 4.69238 7.65294C4.69238 9.01242 5.79445 10.1145 7.15392 10.1145Z" stroke="#0C0C23" stroke-width="2" stroke-linecap="round" stroke-linejoin="round"/>
<path d="M13.3077 7.65385C13.3077 13.1923 7.15385 17.5 7.15385 17.5C7.15385 17.5 1 13.1923 1 7.65385C1 6.02174 1.64835 4.45649 2.80242 3.30242C3.95649 2.14835 5.52174 1.5 7.15385 1.5C8.78595 1.5 10.3512 2.14835 11.5053 3.30242C12.6593 4.45649 13.3077 6.02174 13.3077 7.65385V7.65385Z" stroke="#0C0C23" stroke-width="2" stroke-linecap="round" stroke-linejoin="round"/>
</svg>
