<svg width="118" height="45" viewBox="0 0 118 45" fill="none" xmlns="http://www.w3.org/2000/svg">
<path d="M48.0476 31C46.8228 31 45.7595 30.7358 44.8579 30.2073C43.9563 29.6788 43.2503 28.9357 42.74 27.9778C42.2467 27.0035 42 25.864 42 24.5593C42 23.2382 42.2552 22.0821 42.7655 21.0913C43.2759 20.0839 43.9989 19.2994 44.9345 18.7379C45.8871 18.1764 47.0099 17.8957 48.3028 17.8957C49.1023 17.8957 49.8423 18.0361 50.5228 18.3168C51.2202 18.5976 51.7561 18.9691 52.1304 19.4316V12H56.06V30.678H52.36L52.1559 29.0926C51.8156 29.6541 51.2713 30.1165 50.5228 30.4798C49.7913 30.8266 48.9662 31 48.0476 31ZM48.9917 27.5072C49.6041 27.5072 50.14 27.3833 50.5993 27.1356C51.0756 26.8714 51.4414 26.508 51.6966 26.0456C51.9687 25.5667 52.1048 25.0217 52.1048 24.4107C52.1048 23.7831 51.9687 23.2382 51.6966 22.7758C51.4414 22.3133 51.0756 21.9583 50.5993 21.7106C50.14 21.4463 49.6041 21.3142 48.9917 21.3142C48.3793 21.3142 47.8435 21.4463 47.3841 21.7106C46.9248 21.9748 46.5676 22.3381 46.3124 22.8005C46.0743 23.2629 45.9552 23.7997 45.9552 24.4107C45.9552 25.0217 46.0743 25.5585 46.3124 26.0209C46.5676 26.4833 46.9248 26.8466 47.3841 27.1108C47.8435 27.3751 48.3793 27.5072 48.9917 27.5072Z" fill="#0C0C23"/>
<path d="M64.931 31C63.6552 31 62.5154 30.7193 61.5117 30.1578C60.5251 29.5963 59.7425 28.8283 59.1641 27.854C58.6028 26.8631 58.3221 25.7319 58.3221 24.4602C58.3221 23.1721 58.5943 22.0409 59.1386 21.0665C59.7 20.0756 60.474 19.2994 61.4607 18.7379C62.4474 18.1764 63.5786 17.8957 64.8545 17.8957C66.1984 17.8957 67.3552 18.1682 68.3248 18.7132C69.2945 19.2416 70.043 20.0013 70.5704 20.9922C71.0977 21.9665 71.3614 23.1308 71.3614 24.485V25.4511L60.389 25.5007L60.44 23.1473H67.4573C67.4573 22.4867 67.2276 21.9665 66.7683 21.5867C66.309 21.1904 65.6796 20.9922 64.88 20.9922C64.2166 20.9922 63.6722 21.116 63.2469 21.3638C62.8386 21.6115 62.5324 21.9996 62.3283 22.528C62.1241 23.04 62.0221 23.7006 62.0221 24.5098C62.0221 25.6658 62.2602 26.5246 62.7366 27.0861C63.2299 27.631 63.9869 27.9035 65.0076 27.9035C65.7561 27.9035 66.377 27.7797 66.8704 27.5319C67.3637 27.2842 67.6784 26.9374 67.8145 26.4915H71.4124C71.1913 27.8622 70.4938 28.9605 69.32 29.7862C68.1462 30.5954 66.6832 31 64.931 31Z" fill="#0C0C23"/>
<path d="M77.6181 30.678H73.6885V12H77.6181V30.678Z" fill="#0C0C23"/>
<path d="M84.4958 30.678H80.5661V18.292H84.2406L84.6744 20.4224L84.2662 19.9765C84.5213 19.4811 84.9806 19.0104 85.6441 18.5645C86.3075 18.1186 87.1666 17.8957 88.2213 17.8957C89.3441 17.8957 90.2457 18.1682 90.9262 18.7132C91.6066 19.2581 92.1085 19.9683 92.4317 20.8435H91.8193C92.0234 19.9683 92.5167 19.2581 93.2993 18.7132C94.0818 18.1682 95.0174 17.8957 96.1062 17.8957C97.7563 17.8957 98.9896 18.3251 99.8062 19.1838C100.623 20.0261 101.031 21.1573 101.031 22.5776V30.678H97.1013V23.6428C97.1013 22.8666 96.9057 22.2886 96.5144 21.9087C96.1402 21.5289 95.6383 21.339 95.0089 21.339C94.6347 21.339 94.2774 21.4216 93.9372 21.5867C93.597 21.7353 93.3163 22.0078 93.0951 22.4042C92.874 22.784 92.7634 23.329 92.7634 24.0391V30.678H88.8337V23.6428C88.8337 22.8666 88.6466 22.2968 88.2724 21.9335C87.8981 21.5537 87.3963 21.3638 86.7668 21.3638C86.3926 21.3638 86.0268 21.4463 85.6696 21.6115C85.3294 21.7601 85.0487 22.0326 84.8275 22.4289C84.6064 22.8088 84.4958 23.3455 84.4958 24.0391V30.678Z" fill="#0C0C23"/>
<path d="M103.841 30.678V18.292H107.77V30.678H103.841ZM105.78 16.3598C105.151 16.3598 104.615 16.1534 104.172 15.7405C103.747 15.3112 103.534 14.791 103.534 14.1799C103.534 13.5689 103.747 13.0569 104.172 12.6441C104.615 12.2312 105.151 12.0248 105.78 12.0248C106.392 12.0248 106.911 12.2312 107.337 12.6441C107.779 13.0569 108 13.5689 108 14.1799C108 14.791 107.779 15.3112 107.337 15.7405C106.911 16.1534 106.392 16.3598 105.78 16.3598Z" fill="#0C0C23"/>
<g clip-path="url(#clip0_3_4063)">
<path fill-rule="evenodd" clip-rule="evenodd" d="M22.75 25.75L23.9963 27.175C24.1136 27.3093 24.2583 27.4169 24.4206 27.4906C24.583 27.5643 24.7592 27.6025 24.9375 27.6025C25.1158 27.6025 25.292 27.5643 25.4544 27.4906C25.6167 27.4169 25.7614 27.3093 25.8787 27.175L27.125 25.75H30.25C29.8975 27.5124 28.9452 29.0982 27.5553 30.2377C26.1654 31.3772 24.4236 31.9999 22.6263 32H15.3737C13.5764 31.9999 11.8346 31.3772 10.4447 30.2377C9.05476 29.0982 8.10253 27.5124 7.75 25.75H22.75Z" fill="#0C0C23"/>
<path fill-rule="evenodd" clip-rule="evenodd" d="M30.25 18.25H7.75C8.10253 16.4876 9.05476 14.9018 10.4447 13.7623C11.8346 12.6228 13.5764 12.0001 15.3737 12H22.6263C24.4236 12.0001 26.1654 12.6228 27.5553 13.7623C28.9452 14.9018 29.8975 16.4876 30.25 18.25Z" fill="#0C0C23"/>
<path opacity="0.3" d="M30.25 20.75H7.75C7.05964 20.75 6.5 21.3096 6.5 22C6.5 22.6904 7.05964 23.25 7.75 23.25H30.25C30.9404 23.25 31.5 22.6904 31.5 22C31.5 21.3096 30.9404 20.75 30.25 20.75Z" fill="#0C0C23"/>
</g>
<defs>
<clipPath id="clip0_3_4063">
<rect width="30" height="30" fill="white" transform="translate(4 7)"/>
</clipPath>
</defs>
</svg>
