<svg width="24" height="24" viewBox="0 0 24 24" fill="none" xmlns="http://www.w3.org/2000/svg">
<path fill-rule="evenodd" clip-rule="evenodd" d="M11.0539 4C7.15815 4 4 7.15815 4 11.0539C4 14.9497 7.15815 18.1078 11.0539 18.1078C12.7194 18.1078 14.2501 17.5306 15.4569 16.5653L18.8916 20L20 18.8916L16.5653 15.4569C17.5306 14.2501 18.1078 12.7194 18.1078 11.0539C18.1078 7.15815 14.9497 4 11.0539 4ZM5.56754 11.0539C5.56754 8.02387 8.02387 5.56754 11.0539 5.56754C14.084 5.56754 16.5403 8.02387 16.5403 11.0539C16.5403 14.084 14.084 16.5403 11.0539 16.5403C8.02387 16.5403 5.56754 14.084 5.56754 11.0539Z" fill="#ABAAAD"/>
</svg>
