<svg width="20" height="20" viewBox="0 0 20 20" fill="none" xmlns="http://www.w3.org/2000/svg">
<path d="M7.81809 16.999C8.21975 16.999 8.54537 16.6792 8.54537 16.2847C8.54537 15.8901 8.21975 15.5703 7.81809 15.5703C7.41643 15.5703 7.09082 15.8901 7.09082 16.2847C7.09082 16.6792 7.41643 16.999 7.81809 16.999Z" stroke="#0C0C23" stroke-width="2" stroke-linecap="round" stroke-linejoin="round"/>
<path d="M15.8181 16.999C16.2198 16.999 16.5454 16.6792 16.5454 16.2847C16.5454 15.8901 16.2198 15.5703 15.8181 15.5703C15.4164 15.5703 15.0908 15.8901 15.0908 16.2847C15.0908 16.6792 15.4164 16.999 15.8181 16.999Z" stroke="#0C0C23" stroke-width="2" stroke-linecap="round" stroke-linejoin="round"/>
<path d="M2 2H4.90909L6.85818 11.565C6.92469 11.8939 7.10684 12.1893 7.37276 12.3996C7.63868 12.6098 7.97142 12.7215 8.31273 12.7151H15.3818C15.7231 12.7215 16.0559 12.6098 16.3218 12.3996C16.5877 12.1893 16.7699 11.8939 16.8364 11.565L18 5.57169H5.63636" stroke="#0C0C23" stroke-width="2" stroke-linecap="round" stroke-linejoin="round"/>
</svg>
