<svg width="14" height="14" viewBox="0 0 14 14" fill="none" xmlns="http://www.w3.org/2000/svg">
<path d="M7.61245 6.3875H10.0625V7.6125H6.38745V3.9375H7.61245V6.3875Z" fill="#ECA3B6" stroke="#ECA3B6" stroke-width="0.5"/>
<path fill-rule="evenodd" clip-rule="evenodd" d="M0.875 7C0.875 3.61725 3.61725 0.875 7 0.875C10.3827 0.875 13.125 3.61725 13.125 7C13.125 10.3827 10.3827 13.125 7 13.125C3.61725 13.125 0.875 10.3827 0.875 7ZM7 2.1C4.2938 2.1 2.1 4.2938 2.1 7C2.1 9.70621 4.2938 11.9 7 11.9C9.70621 11.9 11.9 9.70621 11.9 7C11.9 4.2938 9.70621 2.1 7 2.1Z" fill="#ECA3B6" stroke="#ECA3B6" stroke-width="0.5"/>
</svg>
