<svg width="24" height="24" viewBox="0 0 24 24" fill="none" xmlns="http://www.w3.org/2000/svg">
<path fill-rule="evenodd" clip-rule="evenodd" d="M14.8107 3.07745C15.2835 2.99414 15.8131 2.96631 16.3115 3.05303C17.2017 3.20791 18.0238 3.6334 18.6738 4.27132C19.0986 4.2812 19.5161 4.19512 19.8855 4.07241C20.1981 3.96856 20.4623 3.84315 20.6473 3.744C20.7393 3.6947 20.8104 3.65264 20.8566 3.62417C20.8797 3.60995 20.8965 3.5992 20.9065 3.5927L20.9153 3.58689C21.1914 3.39773 21.559 3.43454 21.7943 3.67517C22.0296 3.91585 22.0675 4.29368 21.8849 4.5787C21.6917 4.88036 21.4234 5.41811 21.123 6.02063C21.0757 6.11536 21.0276 6.2117 20.979 6.30897C20.8066 6.65336 20.6298 7.00144 20.4651 7.30007C20.3617 7.48757 20.2511 7.67794 20.1395 7.84244V8.10438C20.1466 9.0665 20.0393 10.0236 19.8216 10.9547C19.6845 11.5406 19.5038 12.1162 19.2804 12.6762C18.7014 14.1272 17.8471 15.4451 16.7674 16.5528C15.6875 17.6605 14.404 18.5357 12.9917 19.1275C11.5807 19.7187 10.0693 20.0151 8.54569 19.9994C6.33704 20.0014 4.17485 19.3469 2.3193 18.1147C2.046 17.9332 1.93093 17.5815 2.04195 17.2671C2.15295 16.9525 2.46058 16.7586 2.78343 16.7998C3.06284 16.8354 3.34415 16.8527 3.62568 16.8517C4.63726 16.8489 5.62957 16.619 6.53548 16.1858C6.24753 16.051 5.97262 15.8849 5.71573 15.6889C4.96065 15.1131 4.39888 14.3094 4.10858 13.3899C4.03314 13.151 4.08471 12.8888 4.24454 12.6988C4.2474 12.6954 4.25029 12.692 4.25321 12.6887C4.08249 12.5322 3.92274 12.3617 3.77567 12.1784C3.11399 11.3535 2.74964 10.3187 2.74426 9.24937L2.74424 9.24566L2.74425 9.19782C2.74425 8.94347 2.87518 8.70811 3.08839 8.57922C3.14244 8.54654 3.19973 8.52195 3.25866 8.50545C2.94393 7.85958 2.78026 7.14638 2.78146 6.42284C2.78109 5.60313 2.98927 4.79759 3.38533 4.08625C3.49966 3.88091 3.70508 3.74674 3.93441 3.72762C4.16373 3.70851 4.38748 3.80691 4.53247 3.99066C5.42787 5.12536 6.54534 6.05363 7.81229 6.71519C8.46358 7.05527 9.14688 7.32095 9.84995 7.50889C10.2441 7.61426 10.6445 7.69518 11.049 7.75108C11.0311 7.05911 11.1639 6.36751 11.4428 5.72848C11.8518 4.79104 12.5517 4.01974 13.4329 3.53554C13.8061 3.33049 14.3014 3.16716 14.8107 3.07745ZM4.31938 10.2985C4.43998 10.6476 4.6194 10.9751 4.852 11.2651C5.30905 11.8348 5.94341 12.2248 6.6478 12.3688C6.96155 12.433 7.19265 12.7085 7.20849 13.0371C7.22432 13.3657 7.02084 13.6633 6.7148 13.7591C6.46131 13.8384 6.20161 13.8937 5.93896 13.9244C6.11252 14.1545 6.31669 14.3607 6.54684 14.5361C7.06886 14.9342 7.69858 15.1552 8.34836 15.168C8.64315 15.1738 8.90257 15.3697 8.99636 15.6572C9.09015 15.9447 8.99807 16.2618 8.76634 16.4493C7.79038 17.2392 6.66182 17.7899 5.46597 18.0711C6.45712 18.3975 7.49659 18.5656 8.54802 18.5643H8.55612C9.89571 18.5786 11.2246 18.3183 12.4652 17.7984C13.706 17.2786 14.8334 16.5097 15.782 15.5367C16.7304 14.5637 17.4808 13.406 17.9895 12.1314C18.1858 11.6393 18.3446 11.1338 18.4649 10.6192C18.6564 9.80038 18.7506 8.95876 18.7442 8.11276V8.10714V7.60007C18.7442 7.42609 18.8057 7.25803 18.9171 7.12717C18.9816 7.05154 19.0943 6.87689 19.2515 6.59188C19.4009 6.321 19.5663 5.9958 19.7383 5.65215C19.7487 5.63137 19.7591 5.61047 19.7697 5.58949C19.3235 5.68913 18.8179 5.74135 18.2878 5.68244C18.12 5.66378 17.9644 5.58314 17.8499 5.45547C17.3821 4.93372 16.7592 4.58643 16.0788 4.46803C15.7769 4.41551 15.4119 4.42753 15.0462 4.49195C14.6489 4.56195 14.3032 4.68443 14.0904 4.80131C13.4818 5.13576 12.9983 5.66852 12.7158 6.31602C12.4333 6.96353 12.3677 7.68917 12.5294 8.37912C12.581 8.59909 12.5287 8.83117 12.3882 9.00533C12.2477 9.17948 12.0357 9.27531 11.8159 9.26388C11.0314 9.22306 10.2551 9.09998 9.49896 8.89786C8.69905 8.68404 7.92163 8.38175 7.18063 7.99483C6.08968 7.42518 5.09615 6.68171 4.23584 5.79415C4.19659 6.00043 4.17666 6.21094 4.1768 6.42281V6.42464C4.17583 6.95153 4.30155 7.4705 4.54276 7.93533C4.78398 8.40016 5.13321 8.79643 5.55936 9.08887C5.81799 9.26635 5.93122 9.59841 5.83703 9.90313C5.74284 10.2079 5.46396 10.4117 5.15317 10.403C4.87169 10.3952 4.59256 10.36 4.31938 10.2985Z" fill="#0C0C23"/>
</svg>
