<svg width="20" height="20" viewBox="0 0 20 20" fill="none" xmlns="http://www.w3.org/2000/svg">
<path fill-rule="evenodd" clip-rule="evenodd" d="M10.0003 2.58301C7.74516 2.58301 5.91699 4.41118 5.91699 6.66634C5.91699 7.92191 6.48369 9.04513 7.37527 9.79418C5.04574 10.8082 3.41699 13.1305 3.41699 15.8333V16.6667C3.41699 17.0809 3.75278 17.4167 4.16699 17.4167C4.58121 17.4167 4.91699 17.0809 4.91699 16.6667V15.8333C4.91699 13.0259 7.19288 10.75 10.0003 10.75C12.8078 10.75 15.0837 13.0259 15.0837 15.8333V16.6667C15.0837 17.0809 15.4194 17.4167 15.8337 17.4167C16.2479 17.4167 16.5837 17.0809 16.5837 16.6667V15.8333C16.5837 13.1305 14.9549 10.8082 12.6254 9.79418C13.517 9.04513 14.0837 7.92191 14.0837 6.66634C14.0837 4.41117 12.2555 2.58301 10.0003 2.58301ZM7.41699 6.66634C7.41699 5.2396 8.57359 4.08301 10.0003 4.08301C11.427 4.08301 12.5837 5.23961 12.5837 6.66634C12.5837 8.09304 11.427 9.24967 10.0003 9.24967C8.57359 9.24967 7.41699 8.09305 7.41699 6.66634Z" fill="#0C0C23"/>
<path d="M7.37527 9.79418L7.45509 9.97756C7.51858 9.94993 7.56325 9.89143 7.5732 9.8229C7.58314 9.75438 7.55693 9.68559 7.50392 9.64105L7.37527 9.79418ZM12.6254 9.79418L12.4967 9.64105C12.4437 9.68559 12.4175 9.75438 12.4274 9.8229C12.4374 9.89142 12.4821 9.94992 12.5456 9.97756L12.6254 9.79418ZM6.11699 6.66634C6.11699 4.52163 7.85562 2.78301 10.0003 2.78301V2.38301C7.63471 2.38301 5.71699 4.30072 5.71699 6.66634H6.11699ZM7.50392 9.64105C6.65564 8.92838 6.11699 7.86035 6.11699 6.66634H5.71699C5.71699 7.98347 6.31174 9.16189 7.24662 9.94731L7.50392 9.64105ZM3.61699 15.8333C3.61699 13.213 5.19592 10.9609 7.45509 9.97756L7.29545 9.6108C4.89557 10.6554 3.21699 13.0481 3.21699 15.8333H3.61699ZM3.61699 16.6667V15.8333H3.21699V16.6667H3.61699ZM4.16699 17.2167C3.86324 17.2167 3.61699 16.9704 3.61699 16.6667H3.21699C3.21699 17.1913 3.64232 17.6167 4.16699 17.6167V17.2167ZM4.71699 16.6667C4.71699 16.9704 4.47075 17.2167 4.16699 17.2167V17.6167C4.69166 17.6167 5.11699 17.1913 5.11699 16.6667H4.71699ZM4.71699 15.8333V16.6667H5.11699V15.8333H4.71699ZM10.0003 10.55C7.08242 10.55 4.71699 12.9154 4.71699 15.8333H5.11699C5.11699 13.1363 7.30334 10.95 10.0003 10.95V10.55ZM15.2837 15.8333C15.2837 12.9154 12.9182 10.55 10.0003 10.55V10.95C12.6973 10.95 14.8837 13.1363 14.8837 15.8333H15.2837ZM15.2837 16.6667V15.8333H14.8837V16.6667H15.2837ZM15.8337 17.2167C15.5299 17.2167 15.2837 16.9704 15.2837 16.6667H14.8837C14.8837 17.1913 15.309 17.6167 15.8337 17.6167V17.2167ZM16.3837 16.6667C16.3837 16.9704 16.1374 17.2167 15.8337 17.2167V17.6167C16.3583 17.6167 16.7837 17.1913 16.7837 16.6667H16.3837ZM16.3837 15.8333V16.6667H16.7837V15.8333H16.3837ZM12.5456 9.97756C14.8047 10.9609 16.3837 13.213 16.3837 15.8333H16.7837C16.7837 13.0481 15.1051 10.6554 12.7052 9.6108L12.5456 9.97756ZM13.8837 6.66634C13.8837 7.86035 13.345 8.92837 12.4967 9.64105L12.754 9.94731C13.6889 9.16189 14.2837 7.98346 14.2837 6.66634H13.8837ZM10.0003 2.78301C12.145 2.78301 13.8837 4.52163 13.8837 6.66634H14.2837C14.2837 4.30071 12.3659 2.38301 10.0003 2.38301V2.78301ZM10.0003 3.88301C8.46313 3.88301 7.21699 5.12915 7.21699 6.66634H7.61699C7.61699 5.35006 8.68405 4.28301 10.0003 4.28301V3.88301ZM12.7837 6.66634C12.7837 5.12915 11.5375 3.88301 10.0003 3.88301V4.28301C11.3166 4.28301 12.3837 5.35007 12.3837 6.66634H12.7837ZM10.0003 9.44967C11.5375 9.44967 12.7837 8.2035 12.7837 6.66634H12.3837C12.3837 7.98259 11.3166 9.04967 10.0003 9.04967V9.44967ZM7.21699 6.66634C7.21699 8.2035 8.46314 9.44967 10.0003 9.44967V9.04967C8.68405 9.04967 7.61699 7.98259 7.61699 6.66634H7.21699Z" fill="#0C0C23"/>
</svg>
